<svg xmlns="http://www.w3.org/2000/svg" viewBox="0 0 512 512">
  <defs>
    <linearGradient id="gradient" x1="0%" y1="0%" x2="100%" y2="100%">
      <stop offset="0%" style="stop-color:#6366F1;stop-opacity:1" />
      <stop offset="100%" style="stop-color:#4F46E5;stop-opacity:1" />
    </linearGradient>
  </defs>
  <rect width="512" height="512" rx="100" fill="url(#gradient)"/>
  <g transform="translate(256, 256)">
    <!-- Checklist icon -->
    <rect x="-140" y="-160" width="280" height="320" rx="20" fill="white" opacity="0.95"/>

    <!-- Checkboxes -->
    <g transform="translate(-100, -110)">
      <rect x="0" y="0" width="40" height="40" rx="8" fill="#4F46E5"/>
      <path d="M 10 20 L 18 28 L 30 12" stroke="white" stroke-width="4" fill="none" stroke-linecap="round" stroke-linejoin="round"/>
    </g>

    <rect x="-60" y="-110" width="160" height="12" rx="6" fill="#D1D5DB"/>

    <g transform="translate(-100, -40)">
      <rect x="0" y="0" width="40" height="40" rx="8" fill="white" stroke="#4F46E5" stroke-width="3"/>
    </g>

    <rect x="-60" y="-40" width="120" height="12" rx="6" fill="#D1D5DB"/>

    <g transform="translate(-100, 30)">
      <rect x="0" y="0" width="40" height="40" rx="8" fill="white" stroke="#4F46E5" stroke-width="3"/>
    </g>

    <rect x="-60" y="30" width="140" height="12" rx="6" fill="#D1D5DB"/>

    <g transform="translate(-100, 100)">
      <rect x="0" y="0" width="40" height="40" rx="8" fill="#4F46E5"/>
      <path d="M 10 20 L 18 28 L 30 12" stroke="white" stroke-width="4" fill="none" stroke-linecap="round" stroke-linejoin="round"/>
    </g>

    <rect x="-60" y="100" width="100" height="12" rx="6" fill="#D1D5DB"/>
  </g>
</svg>
